<mxfile host="app.diagrams.net" modified="2024-04-19T16:27:30.414Z" agent="5.0 (Windows NT 10.0; Win64; x64) AppleWebKit/537.36 (KHTML, like Gecko) Chrome/123.0.0.0 Safari/537.36" etag="4Uon1sI7U448QKlLriW2" version="20.5.3" type="github">
  <diagram id="uu2zIbwYQYIQboB9MT9b" name="第 1 页">
    <mxGraphModel dx="1808" dy="531" grid="1" gridSize="10" guides="1" tooltips="1" connect="1" arrows="1" fold="1" page="1" pageScale="1" pageWidth="827" pageHeight="1169" math="0" shadow="0">
      <root>
        <mxCell id="0" />
        <mxCell id="1" parent="0" />
        <mxCell id="wiP-Ao2mlotpsVeON09L-2" value="PG" style="swimlane;fontStyle=1;align=center;verticalAlign=top;childLayout=stackLayout;horizontal=1;startSize=26;horizontalStack=0;resizeParent=1;resizeParentMax=0;resizeLast=0;collapsible=1;marginBottom=0;" vertex="1" parent="1">
          <mxGeometry x="-190" y="110" width="1180" height="594" as="geometry" />
        </mxCell>
        <mxCell id="wiP-Ao2mlotpsVeON09L-3" value="+ pg_id:                const spg_t                                     // 当前 PG 对象的位置信息【pool，seed，id（id 为了 EC Pool 推出）】 &#xa;+ coll:                    const  coll_t                                    // OSD 定义的 ObjectStore 层用于对象管理的分区（数据分区），只是一个逻辑标识符，内部记录了对应上层某个实体的类型，&#xa;                                                                                    // 比如放置的是上层 TYPE_META 的信息，也可能是 PG 的信息（TYPE_PG / TYPE_PG_TEMP），此时会记录对应的 PGID，&#xa;+ ch:                    ObjectStore::CollectionHandle        // CollectionImpl 指针的别名，是 coll_t 的实现（不是 coll_t 内包含 CollectionImpl 的指针，而是CollectionImpl 包含coll_t 类型的变量，表示其实哪个数据分区的实现类）&#xa;                                                                                    // CollectionImpl 是一个抽象类，定义了一组纯虚函数，由具体的 ObjectStore 后端实现&#xa;&#xa;# pool:                    PGPool                                        // PG 关联的 Pool 的概要信息（id, name，cache tiering 等等），如果 pool 是快照模式，还包含存储池中的所有快照序列&#xa;# osdmap_ref        OSDMapRef                                // 持有的 OSDMap&#xa;# ref:                        std::atomic&lt;unsigned int&gt; = 0    // 原子的引用计数，不需锁专门保护自己，配合自己的 get 和 put 方法使用&#xa;&#xa;# _lock:                   mutable Mutex                            // PG 锁，注释说明应该在做任何事之前 加锁（暂时没有理解这里做任何事是指哪些事，加锁又是为了什么）&#xa;&#xa;# osd:                    OSDService *                                // 持有的 OSDService 句柄，用来调用一些封装的方法&#xa;+ osd_shard:        OSDShard *                                    // 所属的 OSDShard&#xa;+ pg_slot:                OSDShardPGSlot *                    // 所属的 PGSlot" style="text;strokeColor=none;fillColor=none;align=left;verticalAlign=top;spacingLeft=4;spacingRight=4;overflow=hidden;rotatable=0;points=[[0,0.5],[1,0.5]];portConstraint=eastwest;" vertex="1" parent="wiP-Ao2mlotpsVeON09L-2">
          <mxGeometry y="26" width="1180" height="534" as="geometry" />
        </mxCell>
        <mxCell id="wiP-Ao2mlotpsVeON09L-4" value="" style="line;strokeWidth=1;fillColor=none;align=left;verticalAlign=middle;spacingTop=-1;spacingLeft=3;spacingRight=3;rotatable=0;labelPosition=right;points=[];portConstraint=eastwest;strokeColor=inherit;" vertex="1" parent="wiP-Ao2mlotpsVeON09L-2">
          <mxGeometry y="560" width="1180" height="8" as="geometry" />
        </mxCell>
        <mxCell id="wiP-Ao2mlotpsVeON09L-5" value="+ method(type): type" style="text;strokeColor=none;fillColor=none;align=left;verticalAlign=top;spacingLeft=4;spacingRight=4;overflow=hidden;rotatable=0;points=[[0,0.5],[1,0.5]];portConstraint=eastwest;" vertex="1" parent="wiP-Ao2mlotpsVeON09L-2">
          <mxGeometry y="568" width="1180" height="26" as="geometry" />
        </mxCell>
        <mxCell id="wiP-Ao2mlotpsVeON09L-6" value="coll_t" style="swimlane;fontStyle=1;align=center;verticalAlign=top;childLayout=stackLayout;horizontal=1;startSize=26;horizontalStack=0;resizeParent=1;resizeParentMax=0;resizeLast=0;collapsible=1;marginBottom=0;" vertex="1" parent="1">
          <mxGeometry x="1120" y="110" width="160" height="86" as="geometry" />
        </mxCell>
        <mxCell id="wiP-Ao2mlotpsVeON09L-7" value="+ field: type" style="text;strokeColor=none;fillColor=none;align=left;verticalAlign=top;spacingLeft=4;spacingRight=4;overflow=hidden;rotatable=0;points=[[0,0.5],[1,0.5]];portConstraint=eastwest;" vertex="1" parent="wiP-Ao2mlotpsVeON09L-6">
          <mxGeometry y="26" width="160" height="26" as="geometry" />
        </mxCell>
        <mxCell id="wiP-Ao2mlotpsVeON09L-8" value="" style="line;strokeWidth=1;fillColor=none;align=left;verticalAlign=middle;spacingTop=-1;spacingLeft=3;spacingRight=3;rotatable=0;labelPosition=right;points=[];portConstraint=eastwest;strokeColor=inherit;" vertex="1" parent="wiP-Ao2mlotpsVeON09L-6">
          <mxGeometry y="52" width="160" height="8" as="geometry" />
        </mxCell>
        <mxCell id="wiP-Ao2mlotpsVeON09L-9" value="+ method(type): type" style="text;strokeColor=none;fillColor=none;align=left;verticalAlign=top;spacingLeft=4;spacingRight=4;overflow=hidden;rotatable=0;points=[[0,0.5],[1,0.5]];portConstraint=eastwest;" vertex="1" parent="wiP-Ao2mlotpsVeON09L-6">
          <mxGeometry y="60" width="160" height="26" as="geometry" />
        </mxCell>
        <mxCell id="wiP-Ao2mlotpsVeON09L-10" value="CollectionImpl" style="swimlane;fontStyle=1;align=center;verticalAlign=top;childLayout=stackLayout;horizontal=1;startSize=26;horizontalStack=0;resizeParent=1;resizeParentMax=0;resizeLast=0;collapsible=1;marginBottom=0;" vertex="1" parent="1">
          <mxGeometry x="1340" y="110" width="160" height="86" as="geometry" />
        </mxCell>
        <mxCell id="wiP-Ao2mlotpsVeON09L-11" value="+ field: type" style="text;strokeColor=none;fillColor=none;align=left;verticalAlign=top;spacingLeft=4;spacingRight=4;overflow=hidden;rotatable=0;points=[[0,0.5],[1,0.5]];portConstraint=eastwest;" vertex="1" parent="wiP-Ao2mlotpsVeON09L-10">
          <mxGeometry y="26" width="160" height="26" as="geometry" />
        </mxCell>
        <mxCell id="wiP-Ao2mlotpsVeON09L-12" value="" style="line;strokeWidth=1;fillColor=none;align=left;verticalAlign=middle;spacingTop=-1;spacingLeft=3;spacingRight=3;rotatable=0;labelPosition=right;points=[];portConstraint=eastwest;strokeColor=inherit;" vertex="1" parent="wiP-Ao2mlotpsVeON09L-10">
          <mxGeometry y="52" width="160" height="8" as="geometry" />
        </mxCell>
        <mxCell id="wiP-Ao2mlotpsVeON09L-13" value="+ method(type): type" style="text;strokeColor=none;fillColor=none;align=left;verticalAlign=top;spacingLeft=4;spacingRight=4;overflow=hidden;rotatable=0;points=[[0,0.5],[1,0.5]];portConstraint=eastwest;" vertex="1" parent="wiP-Ao2mlotpsVeON09L-10">
          <mxGeometry y="60" width="160" height="26" as="geometry" />
        </mxCell>
      </root>
    </mxGraphModel>
  </diagram>
</mxfile>
